PathFileType	4	(X/Y/Z)	Walk2.trc
DataRate	CameraRate	NumFrames	NumMarkers	Units	OrigDataRate	OrigDataStartFrame	OrigNumFrames
200.000000	200.000000	5	61	mm	200.000000	329	591
Frame#	Times		LFHD		RFHD		CLAV		STRN		LASI		RASI		RACR1		RUA1		RElbow		RFA1		RWRR		RWRU		RCAR		LACR1		LUA1		LElbow		LFA1		LWRR		RTH3		RTH2		RTB1		RTB3		RTB2		RTB4		LTH1		LTH3		LLFC		LMFC		LTB1		LTB2		LMT1		LWRU		LCAR		LTB3		RMFC		LTB4		RMMAL		LTH4		LTH2		RToe		RElbowM		RMT1		RLFC		RTH4		RTH1		LBHD		RCAL		RLMAL		LToe		RBack		RMT5		LMT5		RPSI		LLMAL		C7		LPSI		LMMAL		T10		LCAL		RBHD		LElbowM
			X1	Y1	Z1	X2	Y2	Z2	X3	Y3	Z3	X4	Y4	Z4	X5	Y5	Z5	X6	Y6	Z6	X7	Y7	Z7	X8	Y8	Z8	X9	Y9	Z9	X10	Y10	Z10	X11	Y11	Z11	X12	Y12	Z12	X13	Y13	Z13	X14	Y14	Z14	X15	Y15	Z15	X16	Y16	Z16	X17	Y17	Z17	X18	Y18	Z18	X19	Y19	Z19	X20	Y20	Z20	X21	Y21	Z21	X22	Y22	Z22	X23	Y23	Z23	X24	Y24	Z24	X25	Y25	Z25	X26	Y26	Z26	X27	Y27	Z27	X28	Y28	Z28	X29	Y29	Z29	X30	Y30	Z30	X31	Y31	Z31	X32	Y32	Z32	X33	Y33	Z33	X34	Y34	Z34	X35	Y35	Z35	X36	Y36	Z36	X37	Y37	Z37	X38	Y38	Z38	X39	Y39	Z39	X40	Y40	Z40	X41	Y41	Z41	X42	Y42	Z42	X43	Y43	Z43	X44	Y44	Z44	X45	Y45	Z45	X46	Y46	Z46	X47	Y47	Z47	X48	Y48	Z48	X49	Y49	Z49	X50	Y50	Z50	X51	Y51	Z51	X52	Y52	Z52	X53	Y53	Z53	X54	Y54	Z54	X55	Y55	Z55	X56	Y56	Z56	X57	Y57	Z57	X58	Y58	Z58	X59	Y59	Z59	X60	Y60	Z60	X61	Y61	Z61

329	1.645	-106.23	1662.4	-127.7	-111.94	1669.5	-29.016	-110.74	1408.7	-56.725	-43.705	1250.1	-50.597	-157.23	994.58	-230.59	-149.7	995.23	131.62	-239.62	1494.7	103.48	-281.94	1334.9	224.21	-284.97	1189	282.13	-261.19	1038.5	308.86	-234.99	916.44	249.27	-253.52	925.17	328.87	-217	839.67	305.39	-215.03	1468.4	-247.19	-220.27	1296.2	-339.49	-192.05	1138.3	-398.24	-123.75	1017	-407.9	-35.326	922.27	-345.02	-102.1	643.41	167.09	-95.736	748.61	164.76	12.058	428.42	101.71	18.367	256.22	91.725	-15.312	339.12	150.36	14.829	342.05	97.135	-237.95	759.65	-249.46	-244.53	590.91	-220.16	-270.96	506.59	-214.99	-260.64	500.1	-57.683	-227.89	374.26	-146.55	-279.1	290.69	-183.41	-251.68	36.839	-98.14	-68.502	890.01	-403.47	10.508	849.17	-377.8	-283.61	214.87	-111.46	-55.992	534.57	4.451	-251.73	295.23	-127.48	6.8531	116.59	32.342	-242.17	675.75	-234.7	-184.84	677.56	-216.89	159.78	96.402	130.01	-333.81	1114.9	186.16	132.28	79.4	87.421	-76.318	537.1	159.28	-145.58	717.58	175.12	-190.58	792.02	179.22	-256.64	1585.3	-142.2	-83.557	62.699	50.995	-41.477	99.534	108.94	-196.08	25.164	-135.5	-378.98	1374.5	38.6	75.713	52.312	161.31	-316.05	25.132	-177.88	-411.58	1032	-17.749	-406.83	79.876	-114.75	-303.01	1488.4	-73.522	-403.62	1046.3	-101.97	-381.76	85.903	-27.991	-367.43	1173.4	-57.51	-462.42	57.005	-58.599	-249.57	1601.3	6.3451	-247.65	1062.5	-312.36
330	1.65	-100.27	1661.6	-126.95	-105.97	1668.6	-28.254	-104.7	1407.7	-56.25	-37.766	1249.1	-50.4	-152.25	993.74	-230.66	-143.26	993.9	131.99	-233.41	1493.8	104.06	-276.32	1334	224.67	-279.83	1188	282.5	-256.7	1037.4	309.17	-231.08	915.18	249.56	-249.6	924	329.16	-213.54	838.28	305.67	-209.05	1467.5	-246.61	-213.39	1295.4	-339.05	-184.16	1137.8	-397.98	-115.07	1017.1	-407.64	-26.169	922.88	-344.64	-96.214	642	166.91	-89.807	747.2	164.47	21.629	429.35	101.25	32.823	257.39	91.91	-3.0441	339.55	150.33	26.876	343.11	96.997	-233.62	758.94	-249.32	-240.82	590.23	-220.11	-267.65	505.97	-214.86	-256.92	499.32	-57.578	-225.3	373.27	-146.47	-277.21	290.07	-183.28	-251.58	36.803	-98.162	-58.948	890.48	-403.24	20.302	850.18	-377.38	-282.26	214.3	-111.31	-49.82	532.93	3.7619	-249.75	294.42	-127.39	25.023	117.26	33.114	-238.14	675.12	-234.64	-180.79	676.64	-216.88	179.06	101.29	129.9	-328.78	1114.1	186.42	151.7	83.726	87.428	-69.203	535.91	158.82	-139.61	716.21	175.21	-184.57	790.67	179.39	-250.64	1584.5	-141.51	-63.735	61.052	52.279	-22.435	99.102	109.9	-195.96	25.05	-135.64	-372.87	1373.6	39.317	96.477	54.752	161.6	-316.05	25.161	-177.78	-405.55	1031.1	-16.757	-406.46	80.176	-114.51	-296.98	1487.4	-72.899	-397.92	1045.6	-100.9	-381.27	86.073	-27.754	-361.46	1172.6	-56.549	-462.13	57.528	-58.315	-243.54	1600.3	7.0311	-239.65	1061.6	-312.45
331	1.655	-94.297	1660.7	-126.17	-99.982	1667.6	-27.471	-98.636	1406.6	-55.755	-31.797	1248	-50.192	-147.31	992.85	-230.77	-136.84	992.5	132.4	-227.18	1492.8	104.66	-270.67	1333	225.16	-274.66	1187	282.9	-252.18	1036.3	309.5	-227.13	913.91	249.85	-245.63	922.81	329.46	-210.04	836.88	305.96	-203.06	1466.6	-246.01	-206.52	1294.6	-338.58	-176.32	1137.3	-397.68	-106.46	1017.1	-407.33	-17.084	923.45	-344.24	-90.382	640.47	166.76	-83.895	745.69	164.15	31.02	430.24	100.76	47.005	258.64	92.048	9.0571	340.03	150.3	38.701	344.19	96.822	-229.28	758.21	-249.18	-237.08	589.52	-220.05	-264.31	505.34	-214.73	-253.12	498.51	-57.493	-222.68	372.26	-146.39	-275.31	289.45	-183.15	-251.48	36.768	-98.183	-49.484	890.89	-402.97	30.003	851.14	-376.94	-280.9	213.73	-111.16	-43.796	531.16	3.1075	-247.74	293.6	-127.29	42.828	118.12	33.842	-234.09	674.48	-234.58	-176.71	675.69	-216.87	197.91	106.44	129.57	-323.7	1113.4	186.69	170.68	88.289	87.26	-62.126	534.67	158.38	-133.67	714.74	175.29	-178.55	789.23	179.53	-244.61	1583.5	-140.81	-44.22	59.656	53.597	-3.6548	98.907	110.85	-195.84	24.944	-135.77	-366.73	1372.6	40.064	116.94	57.476	161.75	-316.05	25.189	-177.68	-399.48	1030.3	-15.716	-406.08	80.493	-114.27	-290.93	1486.5	-72.249	-392.18	1044.8	-99.784	-380.77	86.257	-27.526	-355.47	1171.7	-55.56	-461.84	58.076	-58.04	-237.5	1599.2	7.7284	-231.67	1060.6	-312.47
332	1.66	-88.308	1659.8	-125.38	-93.965	1666.6	-26.663	-92.541	1405.6	-55.24	-25.798	1246.9	-49.973	-142.38	991.9	-230.93	-130.41	991.03	132.87	-220.9	1491.7	105.29	-264.98	1332.1	225.67	-269.47	1186	283.33	-247.62	1035.1	309.84	-223.15	912.63	250.15	-241.62	921.6	329.77	-206.51	835.45	306.24	-197.06	1465.6	-245.37	-199.65	1293.8	-338.08	-168.53	1136.8	-397.33	-97.934	1017.1	-406.99	-8.0732	923.96	-343.81	-84.584	638.85	166.62	-77.986	744.06	163.79	40.235	431.09	100.25	60.901	259.96	92.144	20.977	340.55	150.24	50.297	345.28	96.615	-224.91	757.46	-249.03	-233.32	588.79	-219.99	-260.93	504.69	-214.6	-249.27	497.68	-57.424	-220.04	371.23	-146.32	-273.39	288.82	-183.04	-251.39	36.733	-98.205	-40.112	891.27	-402.66	39.608	852.05	-376.49	-279.51	213.16	-111.02	-37.903	529.28	2.488	-245.71	292.76	-127.2	60.248	119.15	34.521	-230.01	673.83	-234.51	-172.6	674.73	-216.86	216.32	111.79	129.05	-318.58	1112.6	186.98	189.19	93.049	86.932	-55.081	533.38	157.97	-127.72	713.19	175.35	-172.52	787.73	179.63	-238.57	1582.6	-140.07	-25.042	58.488	54.935	14.829	98.932	111.77	-195.72	24.846	-135.91	-360.56	1371.6	40.841	137.07	60.458	161.76	-316.05	25.215	-177.57	-393.36	1029.3	-14.627	-405.69	80.829	-114.04	-284.85	1485.5	-71.569	-386.42	1043.9	-98.632	-380.26	86.458	-27.308	-349.44	1170.8	-54.548	-461.55	58.651	-57.778	-231.44	1598.1	8.4381	-223.72	1059.6	-312.41
333	1.665	-82.304	1658.9	-124.56	-87.923	1665.6	-25.832	-86.418	1404.5	-54.704	-19.767	1245.7	-49.743	-137.45	990.9	-231.13	-123.98	989.49	133.36	-214.59	1490.7	105.95	-259.26	1331.1	226.21	-264.25	1185	283.77	-243.03	1033.9	310.2	-219.11	911.32	250.46	-237.57	920.36	330.08	-202.93	834.01	306.53	-191.04	1464.6	-244.71	-192.8	1293	-337.53	-160.81	1136.2	-396.95	-89.485	1017	-406.61	0.86016	924.43	-343.36	-78.799	637.13	166.49	-72.064	742.35	163.41	49.278	431.89	99.725	74.498	261.33	92.205	32.702	341.09	150.18	61.661	346.37	96.385	-220.52	756.69	-248.87	-229.54	588.05	-219.93	-257.53	504.02	-214.47	-245.36	496.83	-57.368	-217.37	370.19	-146.25	-271.46	288.19	-182.92	-251.29	36.698	-98.227	-30.834	891.59	-402.32	49.115	852.91	-376.03	-278.12	212.59	-110.89	-32.122	527.31	1.9048	-243.66	291.92	-127.12	77.263	120.32	35.149	-225.91	673.17	-234.44	-168.46	673.74	-216.86	234.23	117.32	128.34	-313.42	1111.8	187.29	207.2	97.958	86.461	-48.06	532.06	157.57	-121.76	711.58	175.41	-166.45	786.16	179.7	-232.5	1581.6	-139.31	-6.2346	57.525	56.275	32.976	99.16	112.65	-195.62	24.755	-136.03	-354.35	1370.6	41.647	156.79	63.67	161.66	-316.06	25.24	-177.45	-387.21	1028.4	-13.492	-405.3	81.186	-113.82	-278.74	1484.4	-70.857	-380.62	1043	-97.443	-379.75	86.679	-27.104	-343.38	1169.8	-53.514	-461.25	59.255	-57.531	-225.36	1596.9	9.1612	-215.81	1058.6	-312.28
